<?xml version="1.0" encoding="utf-8"?>
<!-- Generator: Adobe Illustrator 26.1.0, SVG Export Plug-In . SVG Version: 6.00 Build 0)  -->
<svg version="1.1" id="Layer_1" xmlns="http://www.w3.org/2000/svg" xmlns:xlink="http://www.w3.org/1999/xlink" x="0px" y="0px"
	 viewBox="0 0 1920 686.1" style="enable-background:new 0 0 1920 686.1;" xml:space="preserve">
<style type="text/css">
	.st0{fill:url(#SVGID_1_);}
	.st1{fill:url(#SVGID_00000035518295537917473540000002577640576809361280_);}
	.st2{fill:url(#SVGID_00000026869050107657950440000004527319456051136434_);}
	.st3{fill:url(#SVGID_00000163042482020684562430000000459701995772991368_);}
	.st4{fill:url(#SVGID_00000129888067693901531360000005695174376877299092_);}
	.st5{fill:url(#SVGID_00000026851458842916984650000005657646248528572835_);}
	.st6{fill:none;}
	.st7{fill:#FFFFFF;stroke:#3B4123;stroke-width:20;stroke-linecap:round;stroke-linejoin:round;stroke-miterlimit:10;}
</style>
<radialGradient id="SVGID_1_" cx="202.3529" cy="408" r="376.9597" gradientUnits="userSpaceOnUse">
	<stop  offset="0" style="stop-color:#FFFFFF"/>
	<stop  offset="1" style="stop-color:#3D5A80"/>
</radialGradient>
<path class="st0" d="M307.5,504.3l-11.1-31.9l-15.8-42.9L199.7,205L65,504.3H18.6v63.8H340v-62.8h-32.5V504.3z M153.3,518.2
	l42.7-87.8l29.7,87.8H153.3z"/>
<radialGradient id="SVGID_00000016035502772008649270000009201372161362783153_" cx="360.4706" cy="306.3529" r="389.6573" gradientUnits="userSpaceOnUse">
	<stop  offset="0" style="stop-color:#FFFFFF"/>
	<stop  offset="0.1181" style="stop-color:#E8ECF0"/>
	<stop  offset="1" style="stop-color:#3D5A80"/>
</radialGradient>
<path style="fill:url(#SVGID_00000016035502772008649270000009201372161362783153_);" d="M401.3,525.2l10.2,41.9H340v-62.8h-1.9
	l2.8-58.9l-46.4,26.9l-15.8-42.9c11.1-25.9,21.4-52.9,26-67.8l-30.1,7.9c24.2-54.9,36.6-118.6,50.5-195.4
	c26,64.8,57.6,121.7,93.8,170.6h-36.2l85.5,87.8h-70.6L401.3,525.2z"/>
<radialGradient id="SVGID_00000085963050446943319150000005139959107566822038_" cx="767.0588" cy="323.2941" r="542.2353" gradientUnits="userSpaceOnUse">
	<stop  offset="0" style="stop-color:#FFFFFF"/>
	<stop  offset="1" style="stop-color:#3D5A80"/>
</radialGradient>
<path style="fill:url(#SVGID_00000085963050446943319150000005139959107566822038_);" d="M1003.2,512.3l-15.8,54.9l13.9,1v2
	l-183.9,4L916.8,210L727.3,577.1c-10.2,13-19.5,16-27.9,0l-2.8-343.2c-46.4,279.3-130,409-259.2,354.1
	c-34.4-58.9-18.6-83.8,25.1-91.8c19.5,14,41.8,19,65.9,18c73.4-72.8,120.8-208.5,145.8-400C540.6,33.4,458.9,297.8,542.5,283.8
	c12.1-2,17.6-1,21.4,12c-1.9,35.9-16.7,47.9-39,47.9c-36.2-5-51.1-39.9-49.2-94.8C485,101.3,590.9,40.4,764.6,41.4l6.5,334.2
	l114.3-221.5c35.3-59.9,69.7-101.8,105-131.7h47.4l-121,490.9L1003.2,512.3L1003.2,512.3z"/>
<radialGradient id="SVGID_00000035518649284331433640000001989361448735868294_" cx="1763.7646" cy="430.5882" r="336" gradientUnits="userSpaceOnUse">
	<stop  offset="0.1457" style="stop-color:#FFFFFF"/>
	<stop  offset="1" style="stop-color:#3D5A80"/>
</radialGradient>
<path style="fill:url(#SVGID_00000035518649284331433640000001989361448735868294_);" d="M1901.4,426.5v48.9
	c-21.4,35.9-46.4,68.8-75.2,96.8c-48.3,18-66.9,12-69.7-37.9l24.2-141.7l-106.8,101.8l-17.6,68.8h-3.7l-60.4-3l-13.9-1l81.7-285.3
	c0-9-4.6-14-13-16l-42.7,52.9c-33.4,8-45.5-2-34.4-31.9L1608,240l5.6-6l31.4-33c39.9-17,69.7-13,80.8,26.9l-38.1,197.5l96.6-94.8
	l25.1-128.7h72.5c-22.3,113.7-43.7,224.4-49.2,297.3C1851.3,488.3,1875.4,461.4,1901.4,426.5z"/>
<radialGradient id="SVGID_00000078025807140950236380000013444258027550163633_" cx="1120" cy="371.2941" r="354.7324" gradientUnits="userSpaceOnUse">
	<stop  offset="0" style="stop-color:#FFFFFF"/>
	<stop  offset="1" style="stop-color:#3D5A80"/>
</radialGradient>
<path style="fill:url(#SVGID_00000078025807140950236380000013444258027550163633_);" d="M1312.5,433.5v19l-7.4,41.9
	c-20.4,30.9-43.7,52.9-69.7,77.8c-37.2,5-55.7,8-68.7-30.9l24.2-141.7L1084,501.3l-17.6,68.8l-65-3l-13.9-1l15.8-54.9l65.9-230.4
	c0-9-4.6-14-13-16l-42.7,52.9c-33.4,8-46.4-2-34.4-31.9l75.2-77.8c39.9-18,69.7-13,79.9,25.9L1097,431.5l96.6-94.8l24.2-128.7h72.5
	c-2.8,14-5.6,27.9-8.4,41.9l0,0l-1,9l-3.7,12c-17.6,90.8-32.5,174.6-37.2,234.4C1262.3,495.3,1285.6,468.4,1312.5,433.5z"/>
<radialGradient id="SVGID_00000036963283291768488470000009765947115565381022_" cx="1396.7059" cy="391.0588" r="490.5227" gradientUnits="userSpaceOnUse">
	<stop  offset="0" style="stop-color:#FFFFFF"/>
	<stop  offset="0.9334" style="stop-color:#3D5A80"/>
</radialGradient>
<path style="fill:url(#SVGID_00000036963283291768488470000009765947115565381022_);" d="M1662.7,596.1
	c-11.1,23.9-26,43.9-48.3,59.9c-26.9,15-52.9,17-76.2,0c-28.8-17-51.1-45.9-68.7-85.8c-18.6-79.8-42.7-147.6-76.2-191.5l-26.9,191.5
	H1293l13-75.8l7.4-41.9l35.3-207.5l-56.7,54.9l-11.1-26.9l4.7-21l0,0l92-94.8c18.6-2,33.4,7,45.5,25.9l-21.4,138.7
	c41.8-64.8,81.7-115.7,119.8-154.6c29.7-18,58.5-20,86.4-8c14.9,22.9,15,45.9,5.7,74.8l-5.6,6c-24.2-21.9-49.4-19.9-79.1-4
	l-94.3,103c-3.9,4.3-1.5,11.3,4.3,12.1c60.6,8.2,97.1,95.6,116.9,237c15.8,24.9,26.9,20.9,35.3,4c-0.9-12,0-21.9,2.8-28.9l60.4,3
	C1657.1,572.1,1660.8,583.1,1662.7,596.1z"/>
<polygon class="st6" points="195.1,423.5 148.6,524.2 230.4,524.2 "/>
<path class="st7" d="M1280.9,258.9"/>
</svg>
